<svg id="heart" xmlns="http://www.w3.org/2000/svg" width="14" height="14" viewBox="0 0 14 14">
  <path id="heart-2" data-name="heart" d="M8.544,4.943l-.727-.834a3.357,3.357,0,0,0-5.2,0,4.667,4.667,0,0,0,0,5.966l5.913,6.78h0l.018.02,5.913-6.78a4.667,4.667,0,0,0,0-5.966,3.357,3.357,0,0,0-5.2,0Zm-.016,9.741,3.3-3.786L12.8,9.823h0l.711-.815a2.97,2.97,0,0,0,0-3.8,2.136,2.136,0,0,0-3.311,0l-1.656,1.9,0-.006h0L6.871,5.194a2.136,2.136,0,0,0-3.311,0,2.97,2.97,0,0,0,0,3.8l1.7,1.948h0Z" transform="translate(-1.536 -2.874)" fill="#686868" fill-rule="evenodd"/>
</svg>
