<svg xmlns="http://www.w3.org/2000/svg" width="27.875" height="31.716" viewBox="0 0 27.875 31.716">
  <g id="location" transform="translate(-31)">
    <g id="Group_7056" data-name="Group 7056" transform="translate(31)">
      <g id="Group_7055" data-name="Group 7055" transform="translate(0)">
        <path id="Path_3914" data-name="Path 3914" d="M50.232,20.955c3.375-5.3,2.951-4.635,3.048-4.773a10.145,10.145,0,0,0,1.878-5.9,10.221,10.221,0,1,0-18.51,5.974l2.994,4.7c-3.2.492-8.643,1.958-8.643,5.186,0,1.177.768,2.853,4.427,4.16a29.328,29.328,0,0,0,9.511,1.415c6.692,0,13.938-1.888,13.938-5.575C58.875,22.912,53.44,21.448,50.232,20.955ZM38.2,15.235q-.015-.024-.032-.047a8.362,8.362,0,1,1,13.6-.094c-.09.118.377-.607-6.836,10.711Zm6.737,14.622c-7.309,0-12.079-2.148-12.079-3.717,0-1.054,2.451-2.787,7.882-3.463l3.413,5.356a.929.929,0,0,0,1.567,0l3.413-5.356c5.431.676,7.883,2.409,7.883,3.463C57.017,27.7,52.29,29.857,44.938,29.857Z" transform="translate(-31)" fill="#686868"/>
      </g>
    </g>
    <g id="Group_7058" data-name="Group 7058" transform="translate(40.292 5.637)">
      <g id="Group_7057" data-name="Group 7057" transform="translate(0)">
        <path id="Path_3915" data-name="Path 3915" d="M185.646,91a4.646,4.646,0,1,0,4.646,4.646A4.651,4.651,0,0,0,185.646,91Zm0,7.433a2.788,2.788,0,1,1,2.788-2.788A2.791,2.791,0,0,1,185.646,98.433Z" transform="translate(-181 -91)" fill="#686868"/>
      </g>
    </g>
  </g>
</svg>
