<svg id="shopping-bag" xmlns="http://www.w3.org/2000/svg" width="14" height="14" viewBox="0 0 14 14">
  <path id="shopping-bag-2" data-name="shopping-bag" d="M4.1,3.4h9.8a.7.7,0,0,1,.7.7v9.8a.7.7,0,0,1-.7.7H4.1a.7.7,0,0,1-.7-.7V4.1A.7.7,0,0,1,4.1,3.4ZM2,4.1A2.1,2.1,0,0,1,4.1,2h9.8A2.1,2.1,0,0,1,16,4.1v9.8A2.1,2.1,0,0,1,13.9,16H4.1A2.1,2.1,0,0,1,2,13.9ZM9,9C7.067,9,5.5,7.12,5.5,4.8H6.9C6.9,6.6,8.068,7.6,9,7.6s2.1-1,2.1-2.8h1.4C12.5,7.12,10.933,9,9,9Z" transform="translate(-2 -2)" fill="#686868" fill-rule="evenodd"/>
</svg>
