<svg id="time" xmlns="http://www.w3.org/2000/svg" width="27.463" height="27.463" viewBox="0 0 27.463 27.463">
  <g id="Group_7065" data-name="Group 7065">
    <g id="Group_7064" data-name="Group 7064">
      <path id="Path_3918" data-name="Path 3918" d="M13.731,0A13.731,13.731,0,1,0,27.463,13.731,13.731,13.731,0,0,0,13.731,0Zm0,25.5A11.77,11.77,0,1,1,25.5,13.731,11.77,11.77,0,0,1,13.731,25.5Z" fill="#686868"/>
    </g>
  </g>
  <g id="Group_7067" data-name="Group 7067" transform="translate(4.904 4.904)">
    <g id="Group_7066" data-name="Group 7066">
      <path id="Path_3919" data-name="Path 3919" d="M94.16,85.333a.981.981,0,0,0-.981.981V93.18H86.314a.981.981,0,1,0,0,1.962H94.16a.981.981,0,0,0,.981-.981V86.314A.981.981,0,0,0,94.16,85.333Z" transform="translate(-85.333 -85.333)" fill="#686868"/>
    </g>
  </g>
</svg>
