<svg xmlns="http://www.w3.org/2000/svg" width="14" height="14" viewBox="0 0 14 14">
  <g id="Group" fill="none" fill-rule="evenodd">
    <path d="M1.167,14A1.143,1.143,0,0,1,0,12.833c0-1.167,1.167-4.259,7-4.259s7,3.092,7,4.259A1.143,1.143,0,0,1,12.833,14ZM7,7A3.5,3.5,0,1,0,4.525,5.975,3.5,3.5,0,0,0,7,7Z" stroke="none"/>
    <path d="M 12.43654346466064 12.5 C 12.34317111968994 12.20377826690674 12.12921142578125 11.78207302093506 11.68397998809814 11.38131046295166 C 10.73421001434326 10.52641010284424 9.114520072937012 10.07452964782715 7 10.07452964782715 C 4.885479927062988 10.07452964782715 3.265789985656738 10.52641010284424 2.316020011901855 11.38131046295166 C 1.87078869342804 11.78207302093506 1.656829237937927 12.20377826690674 1.563456773757935 12.5 L 12.43654346466064 12.5 M 7 5.5 C 7.534210205078125 5.5 8.036459922790527 5.291959762573242 8.414210319519043 4.914209842681885 C 8.791959762573242 4.536459922790527 9 4.034210205078125 9 3.5 C 9 2.965790033340454 8.791959762573242 2.463540077209473 8.414210319519043 2.085789918899536 C 8.036459922790527 1.708039999008179 7.534210205078125 1.5 7 1.5 C 6.465779781341553 1.5 5.963540077209473 1.708029985427856 5.585790157318115 2.085789918899536 C 5.208040237426758 2.463540077209473 5 2.965790033340454 5 3.5 C 5 4.034210205078125 5.208040237426758 4.536459922790527 5.585800170898438 4.914219856262207 C 5.963540077209473 5.291969776153564 6.465779781341553 5.5 7 5.5 M 12.83333015441895 14 L 1.166669964790344 14 C 1.166669964790344 14 -8.881784197001252e-16 14 -8.881784197001252e-16 12.83333015441895 C -8.881784197001252e-16 11.66666984558105 1.166669964790344 8.574529647827148 7 8.574529647827148 C 12.83333015441895 8.574529647827148 14 11.66666984558105 14 12.83333015441895 C 14 14 12.83333015441895 14 12.83333015441895 14 Z M 7 7 C 6.07174015045166 7 5.18149995803833 6.631249904632568 4.525129795074463 5.974870204925537 C 3.868750095367432 5.318490028381348 3.5 4.42825984954834 3.5 3.5 C 3.5 2.571739912033081 3.868750095367432 1.681509971618652 4.525129795074463 1.025130033493042 C 5.18149995803833 0.3687500059604645 6.07174015045166 -8.881784197001252e-16 7 -8.881784197001252e-16 C 7.92825984954834 -8.881784197001252e-16 8.818490028381348 0.3687500059604645 9.474869728088379 1.025130033493042 C 10.13125038146973 1.681509971618652 10.5 2.571739912033081 10.5 3.5 C 10.5 4.42825984954834 10.13125038146973 5.318490028381348 9.474869728088379 5.974870204925537 C 8.818490028381348 6.631249904632568 7.92825984954834 7 7 7 Z" stroke="none" fill="#686868"/>
  </g>
</svg>
