<svg xmlns="http://www.w3.org/2000/svg" width="22.89" height="28.964" viewBox="0 0 22.89 28.964">
  <g id="user" transform="translate(-47.85)">
    <g id="Group_7061" data-name="Group 7061" transform="translate(47.85)">
      <g id="Group_7060" data-name="Group 7060" transform="translate(0)">
        <path id="Path_3916" data-name="Path 3916" d="M65.389,220.526a8.762,8.762,0,0,1-1.337,1.36,9.6,9.6,0,0,1,4.833,8.324c0,1.922-4.212,3.428-9.589,3.428s-9.589-1.506-9.589-3.428a9.6,9.6,0,0,1,4.833-8.324,8.764,8.764,0,0,1-1.337-1.36,11.447,11.447,0,0,0-5.352,9.684c0,1.234.676,2.953,3.894,4.138a22.681,22.681,0,0,0,7.551,1.146,22.681,22.681,0,0,0,7.551-1.146c3.218-1.185,3.894-2.9,3.894-4.138A11.447,11.447,0,0,0,65.389,220.526Z" transform="translate(-47.85 -206.53)" fill="#686868"/>
        <path id="Path_3917" data-name="Path 3917" d="M133.97,15.219c3.607,0,6.385-3.487,6.385-7.609S137.575,0,133.97,0s-6.385,3.487-6.385,7.609S130.364,15.219,133.97,15.219Zm0-13.363c2.5,0,4.529,2.581,4.529,5.754s-2.032,5.754-4.529,5.754-4.529-2.581-4.529-5.754S131.473,1.856,133.97,1.856Z" transform="translate(-122.524)" fill="#686868"/>
      </g>
    </g>
  </g>
</svg>
